<svg id="gutenbee_logo" xmlns="http://www.w3.org/2000/svg" width="293" height="39.706" viewBox="0 0 293 39.706">
  <g id="Group_7" data-name="Group 7">
    <path id="Path_15" data-name="Path 15" d="M59.764,0H19.61A19.668,19.668,0,0,0,0,19.61V20.1a19.668,19.668,0,0,0,19.61,19.61H59.764A19.668,19.668,0,0,0,79.374,20.1V19.61A19.668,19.668,0,0,0,59.764,0ZM19.806,35.97A16.118,16.118,0,1,1,35.877,19.853,16.118,16.118,0,0,1,19.806,35.97Zm13.232,0a14.934,14.934,0,0,1-1.587-.084,19.83,19.83,0,0,0,0-32.067,14.935,14.935,0,0,1,1.587-.084,16.118,16.118,0,1,1,0,32.235Zm13.232,0a14.935,14.935,0,0,1-1.587-.084,19.83,19.83,0,0,0,0-32.067,14.935,14.935,0,0,1,1.587-.084,16.118,16.118,0,1,1,0,32.235ZM75.639,20.1A15.9,15.9,0,0,1,59.764,35.97H57.812a19.836,19.836,0,0,0,0-32.235h1.952A15.9,15.9,0,0,1,75.639,19.61Z" fill="#1d2d35"/>
    <ellipse id="Ellipse_1" data-name="Ellipse 1" cx="16.071" cy="16.118" rx="16.071" ry="16.118" transform="translate(3.735 3.735)" fill="#fff"/>
    <path id="Path_16" data-name="Path 16" d="M49.107,19.857A16.111,16.111,0,0,0,33.036,3.74a14.933,14.933,0,0,0-1.587.084A19.8,19.8,0,0,1,39.61,19.857h9.5Z" fill="#ffda00"/>
    <path id="Path_17" data-name="Path 17" d="M75.36,22.985a15.841,15.841,0,0,0,.276-2.885v-.486A15.9,15.9,0,0,0,59.761,3.74H57.81a19.815,19.815,0,0,1,8.274,16.118h1.185a12.072,12.072,0,0,1,8.092,3.128Z" fill="#ffda00"/>
    <path id="Path_18" data-name="Path 18" d="M62.348,19.857A16.112,16.112,0,0,0,46.268,3.74a14.935,14.935,0,0,0-1.587.084,19.8,19.8,0,0,1,8.161,16.034h9.506Z" fill="#ffda00"/>
    <path id="Path_19" data-name="Path 19" d="M31.448,35.891a14.935,14.935,0,0,0,1.587.084A16.11,16.11,0,0,0,49.107,19.857h-9.5A19.813,19.813,0,0,1,31.448,35.891Z" fill="#ffba1f"/>
    <path id="Path_20" data-name="Path 20" d="M57.81,35.975h1.952a15.9,15.9,0,0,0,15.6-12.99,12.072,12.072,0,0,0-8.092-3.128H66.083A19.815,19.815,0,0,1,57.81,35.975Z" fill="#ffba1f"/>
    <path id="Path_21" data-name="Path 21" d="M44.68,35.891a14.935,14.935,0,0,0,1.587.084,16.112,16.112,0,0,0,16.08-16.118H52.842A19.813,19.813,0,0,1,44.68,35.891Z" fill="#ffba1f"/>
    <path id="Path_22" data-name="Path 22" d="M26.468,17.989h-4.75V13.24H17.983v4.749h-4.75v3.736h4.75v4.75h3.735v-4.75h4.75Z" fill="#1d2d35"/>
  </g>
  <g id="Group_8" data-name="Group 8" transform="translate(-7)">
    <path id="Path_23" data-name="Path 23" d="M115.669,28.762V24.373h-3.731V18.58h12.069v15.4c-2.107,1.229-7.593,2.283-11.63,2.283-12.289,0-16.195-7.68-16.195-16.282,0-8.645,5.048-16.545,17.028-16.545a26.36,26.36,0,0,1,8.69,1.316l.746,7.5c-.088,0-.088.045-.176.045a23.383,23.383,0,0,0-7.812-1.449c-4.828,0-8.6,2.107-8.6,9.173,0,6.056,2.545,9.128,7.022,9.128a6.592,6.592,0,0,0,2.589-.395Z" fill="#1d2d35"/>
    <path id="Path_24" data-name="Path 24" d="M127.563,27.664V14.235h9.347V26.918c0,1.755.4,2.59,1.931,2.59,1.887,0,2.326-1.185,2.326-2.721V14.235h9.391V35.608h-8.6l-.264-2.283c-.044,0-.131-.044-.175-.044-1.186,1.755-3.029,2.9-6.232,2.9C129.714,36.179,127.563,32.975,127.563,27.664Z" fill="#1d2d35"/>
    <path id="Path_25" data-name="Path 25" d="M165.044,20.16v6.5c0,2.5.878,3.028,2.677,3.028a9.477,9.477,0,0,0,3.379-.7h.264l-.658,6.1a19.52,19.52,0,0,1-6.583,1.1c-5.134,0-8.426-2.107-8.426-8.164V20.16h-3.071V14.235H155.7v-5l9.348-2.194v7.2h5.31l.307,5.925Z" fill="#1d2d35"/>
    <path id="Path_26" data-name="Path 26" d="M182.029,26.743c.264,1.931,1.361,3.116,4.828,3.116a21.641,21.641,0,0,0,6.978-1.317h.263l-.614,6.232a24.509,24.509,0,0,1-8.515,1.4c-9.216,0-12.551-4.74-12.551-11.235,0-7.9,5.4-11.323,11.892-11.323,7.68,0,10.489,4.257,10.489,10.138,0,.966-.044,2.15-.131,2.985Zm-.044-4.52h4.388c.088-2.283-.482-3.38-2.063-3.38-1.711,0-2.326,1.273-2.326,3.38Z" fill="#1d2d35"/>
    <path id="Path_27" data-name="Path 27" d="M220.782,22.4v13.21h-9.348V22.925c0-1.755-.482-2.589-2.019-2.589-1.887,0-2.589,1.185-2.589,2.72V35.608h-9.348V14.235h8.646l.219,2.326.176.044c1.185-1.8,3.291-2.985,6.495-2.985C218.587,13.62,220.782,16.869,220.782,22.4Z" fill="#1d2d35"/>
    <path id="Path_28" data-name="Path 28" d="M224.952,4.053h15.184c7.285,0,9.919,2.852,9.919,7.5,0,4.126-2.151,6.715-5.617,7.593v.088c3.906.4,7.153,2.15,7.153,7.418s-3.335,8.952-11.586,8.952H224.952Zm12.288,12.42c2.107,0,3.642-.79,3.642-3.247,0-2.325-1.185-2.765-3.028-2.765h-3.16v6.012Zm.395,12.771c2.414,0,3.906-.615,3.906-3.247,0-2.37-1.579-2.985-3.511-2.985h-3.335v6.232Z" fill="#1d2d35"/>
    <path id="Path_29" data-name="Path 29" d="M263,26.743c.264,1.931,1.361,3.116,4.828,3.116a21.646,21.646,0,0,0,6.978-1.317h.263l-.614,6.232a24.509,24.509,0,0,1-8.515,1.4c-9.216,0-12.551-4.74-12.551-11.235,0-7.9,5.4-11.323,11.893-11.323,7.679,0,10.488,4.257,10.488,10.138,0,.966-.044,2.15-.131,2.985Zm-.044-4.52h4.388c.088-2.283-.482-3.38-2.062-3.38-1.712,0-2.327,1.273-2.327,3.38Z" fill="#1d2d35"/>
    <path id="Path_30" data-name="Path 30" d="M287.229,26.743c.264,1.931,1.361,3.116,4.828,3.116a21.646,21.646,0,0,0,6.978-1.317h.263l-.614,6.232a24.509,24.509,0,0,1-8.515,1.4c-9.216,0-12.551-4.74-12.551-11.235,0-7.9,5.4-11.323,11.893-11.323,7.679,0,10.488,4.257,10.488,10.138,0,.966-.044,2.15-.131,2.985Zm-.044-4.52h4.388c.088-2.283-.482-3.38-2.062-3.38-1.712,0-2.326,1.273-2.326,3.38Z" fill="#1d2d35"/>
  </g>
</svg>
